<svg id="Flat" height="512" viewBox="0 0 512 512" width="512" xmlns="http://www.w3.org/2000/svg"><path d="m440 152h-256l-32 336h320z" fill="#c7312e"/><path d="m344 200a8 8 0 0 1 -8-8v-96a56 56 0 0 0 -112 0v96a8 8 0 0 1 -16 0v-96a72 72 0 0 1 144 0v96a8 8 0 0 1 -8 8z" fill="#4f5659"/><path d="m360 152h-256l-32 336h320z" fill="#eb423f"/><path d="m296 224a8 8 0 0 1 -8-8v-120a56 56 0 0 0 -112 0v120a8 8 0 0 1 -16 0v-120a72 72 0 0 1 144 0v120a8 8 0 0 1 -8 8z" fill="#4f5659"/><path d="m472 488h-10.95l-32.89-35.18-26.18 35.18h-9.98l-1.13-11.88 28.34-38.07-27.17-285.29c-.02-.26-.04-.51-.04-.76h16.03l27.14 284.88 35.59 38.08z" fill="#a82a27"/><path d="m24 456h128v32h-128z" fill="#ffd33a"/><path d="m24 424h128v32h-128z" fill="#f7b030"/><path d="m360 456h128v32h-128z" fill="#f7b030"/><path d="m360 424h128v32h-128z" fill="#ffd33a"/><path d="m24 392h128v32h-128z" fill="#ffd33a"/><path d="m40 360h144v32h-144z" fill="#f7b030"/><path d="m56 328h128v32h-128z" fill="#ffd33a"/><path d="m56 296h128v32h-128z" fill="#f7b030"/><path d="m24 264h128v32h-128z" fill="#ffd33a"/><circle cx="216" cy="424" fill="#ffd33a" r="64"/><path d="m216 416a8 8 0 1 1 8-8 8 8 0 0 0 16 0 24.039 24.039 0 0 0 -16-22.624v-9.376a8 8 0 0 0 -16 0v9.376a24 24 0 0 0 8 46.624 8 8 0 1 1 -8 8 8 8 0 0 0 -16 0 24.039 24.039 0 0 0 16 22.624v9.376a8 8 0 0 0 16 0v-9.376a24 24 0 0 0 -8-46.624z" fill="#f7b030"/><g fill="#4f5659"><circle cx="296" cy="216" r="16"/><circle cx="168" cy="216" r="16"/></g></svg>